<svg width="2000" height="2000" viewBox="0 0 2000 2000" fill="none" xmlns="http://www.w3.org/2000/svg">
<rect width="2000" height="2000" rx="541" fill="#3A7BFF"/>
<g filter="url(#filter0_d_206_63)">
<path d="M755.46 1238.96H505C449.772 1238.96 405 1283.73 405 1338.96V1419C405 1474.23 449.771 1519 505 1519H755.46C810.688 1519 855.46 1474.23 855.46 1419V1338.96C855.46 1283.73 810.688 1238.96 755.46 1238.96Z" stroke="white" stroke-width="86" shape-rendering="crispEdges"/>
<path d="M1130.88 1419V1009.36C1130.88 954.131 1175.65 909.359 1230.88 909.359H1495.5C1550.73 909.359 1595.5 954.131 1595.5 1009.36V1419C1595.5 1474.23 1550.73 1519 1495.5 1519H1230.88C1175.65 1519 1130.88 1474.23 1130.88 1419Z" stroke="white" stroke-width="86" shape-rendering="crispEdges"/>
</g>
<g filter="url(#filter1_d_206_63)">
<path d="M1245.04 762.44H1495.5C1550.73 762.44 1595.5 717.668 1595.5 662.44V582.001C1595.5 526.772 1550.73 482.001 1495.5 482.001H1245.04C1189.81 482.001 1145.04 526.772 1145.04 582.001V662.44C1145.04 717.668 1189.81 762.44 1245.04 762.44Z" stroke="white" stroke-width="86" shape-rendering="crispEdges"/>
<path d="M869.617 582V992.514C869.617 1047.74 824.846 1092.51 769.618 1092.51H505.001C449.772 1092.51 405.001 1047.74 405.001 992.514V582.001C405.001 526.772 449.772 482.001 505 482.001H769.617C824.846 482.001 869.617 526.772 869.617 582Z" stroke="white" stroke-width="86" shape-rendering="crispEdges"/>
</g>
<rect width="2000" height="2000" rx="541" fill="#3A7BFF"/>
<g filter="url(#filter2_d_206_63)">
<path d="M755.46 1238.96H505C449.772 1238.96 405 1283.73 405 1338.96V1419C405 1474.23 449.771 1519 505 1519H755.46C810.688 1519 855.46 1474.23 855.46 1419V1338.96C855.46 1283.73 810.688 1238.96 755.46 1238.96Z" stroke="white" stroke-width="86" shape-rendering="crispEdges"/>
<path d="M1130.88 1419V1009.36C1130.88 954.129 1175.65 909.357 1230.88 909.357H1495.5C1550.73 909.357 1595.5 954.129 1595.5 1009.36V1419C1595.5 1474.23 1550.73 1519 1495.5 1519H1230.88C1175.65 1519 1130.88 1474.23 1130.88 1419Z" stroke="white" stroke-width="86" shape-rendering="crispEdges"/>
</g>
<g filter="url(#filter3_d_206_63)">
<path d="M1245.04 762.438H1495.5C1550.73 762.438 1595.5 717.666 1595.5 662.438V581.999C1595.5 526.77 1550.73 481.999 1495.5 481.999H1245.04C1189.81 481.999 1145.04 526.77 1145.04 581.999V662.438C1145.04 717.666 1189.81 762.438 1245.04 762.438Z" stroke="white" stroke-width="86" shape-rendering="crispEdges"/>
<path d="M869.617 581.999V992.512C869.617 1047.74 824.846 1092.51 769.618 1092.51H505.001C449.772 1092.51 405.001 1047.74 405.001 992.512V581.999C405.001 526.77 449.772 481.999 505 481.999H769.617C824.846 481.999 869.617 526.77 869.617 581.999Z" stroke="white" stroke-width="86" shape-rendering="crispEdges"/>
</g>
<defs>
<filter id="filter0_d_206_63" x="362" y="866.359" width="1300.5" height="719.641" filterUnits="userSpaceOnUse" color-interpolation-filters="sRGB">
<feFlood flood-opacity="0" result="BackgroundImageFix"/>
<feColorMatrix in="SourceAlpha" type="matrix" values="0 0 0 0 0 0 0 0 0 0 0 0 0 0 0 0 0 0 127 0" result="hardAlpha"/>
<feOffset dx="12" dy="12"/>
<feGaussianBlur stdDeviation="6"/>
<feComposite in2="hardAlpha" operator="out"/>
<feColorMatrix type="matrix" values="0 0 0 0 0 0 0 0 0 0 0 0 0 0 0 0 0 0 0.25 0"/>
<feBlend mode="normal" in2="BackgroundImageFix" result="effect1_dropShadow_206_63"/>
<feBlend mode="normal" in="SourceGraphic" in2="effect1_dropShadow_206_63" result="shape"/>
</filter>
<filter id="filter1_d_206_63" x="362.001" y="439" width="1300.5" height="720.514" filterUnits="userSpaceOnUse" color-interpolation-filters="sRGB">
<feFlood flood-opacity="0" result="BackgroundImageFix"/>
<feColorMatrix in="SourceAlpha" type="matrix" values="0 0 0 0 0 0 0 0 0 0 0 0 0 0 0 0 0 0 127 0" result="hardAlpha"/>
<feOffset dx="12" dy="12"/>
<feGaussianBlur stdDeviation="6"/>
<feComposite in2="hardAlpha" operator="out"/>
<feColorMatrix type="matrix" values="0 0 0 0 0 0 0 0 0 0 0 0 0 0 0 0 0 0 0.25 0"/>
<feBlend mode="normal" in2="BackgroundImageFix" result="effect1_dropShadow_206_63"/>
<feBlend mode="normal" in="SourceGraphic" in2="effect1_dropShadow_206_63" result="shape"/>
</filter>
<filter id="filter2_d_206_63" x="362" y="866.357" width="1300.5" height="719.641" filterUnits="userSpaceOnUse" color-interpolation-filters="sRGB">
<feFlood flood-opacity="0" result="BackgroundImageFix"/>
<feColorMatrix in="SourceAlpha" type="matrix" values="0 0 0 0 0 0 0 0 0 0 0 0 0 0 0 0 0 0 127 0" result="hardAlpha"/>
<feOffset dx="12" dy="12"/>
<feGaussianBlur stdDeviation="6"/>
<feComposite in2="hardAlpha" operator="out"/>
<feColorMatrix type="matrix" values="0 0 0 0 0 0 0 0 0 0 0 0 0 0 0 0 0 0 0.25 0"/>
<feBlend mode="normal" in2="BackgroundImageFix" result="effect1_dropShadow_206_63"/>
<feBlend mode="normal" in="SourceGraphic" in2="effect1_dropShadow_206_63" result="shape"/>
</filter>
<filter id="filter3_d_206_63" x="362.001" y="438.998" width="1300.5" height="720.514" filterUnits="userSpaceOnUse" color-interpolation-filters="sRGB">
<feFlood flood-opacity="0" result="BackgroundImageFix"/>
<feColorMatrix in="SourceAlpha" type="matrix" values="0 0 0 0 0 0 0 0 0 0 0 0 0 0 0 0 0 0 127 0" result="hardAlpha"/>
<feOffset dx="12" dy="12"/>
<feGaussianBlur stdDeviation="6"/>
<feComposite in2="hardAlpha" operator="out"/>
<feColorMatrix type="matrix" values="0 0 0 0 0 0 0 0 0 0 0 0 0 0 0 0 0 0 0.25 0"/>
<feBlend mode="normal" in2="BackgroundImageFix" result="effect1_dropShadow_206_63"/>
<feBlend mode="normal" in="SourceGraphic" in2="effect1_dropShadow_206_63" result="shape"/>
</filter>
</defs>
</svg>
